G04*
G04 #@! TF.GenerationSoftware,Altium Limited,Altium Designer,20.1.14 (287)*
G04*
G04 Layer_Color=255*
%FSLAX25Y25*%
%MOIN*%
G70*
G04*
G04 #@! TF.SameCoordinates,CBDBEFF8-9AEE-4DE1-B039-B0D643503B7D*
G04*
G04*
G04 #@! TF.FilePolarity,Positive*
G04*
G01*
G75*
%ADD18R,0.12795X0.19685*%
%ADD19R,0.03937X0.04331*%
%ADD20R,0.02362X0.03150*%
%ADD21R,0.02362X0.01378*%
%ADD22R,0.01181X0.01378*%
%ADD24R,0.03347X0.04134*%
%ADD25R,0.04331X0.06693*%
%ADD26R,0.04331X0.03937*%
%ADD27R,0.03150X0.03543*%
%ADD28R,0.02165X0.05807*%
%ADD29R,0.03150X0.05807*%
%ADD30R,0.07284X0.12303*%
%ADD31R,0.03543X0.07087*%
%ADD32R,0.07284X0.13386*%
%ADD33R,0.02362X0.05906*%
%ADD34O,0.05709X0.02362*%
%ADD35R,0.07087X0.06299*%
%ADD36R,0.07087X0.06299*%
%ADD37R,0.05709X0.01772*%
%ADD39R,0.01378X0.01181*%
%ADD40R,0.01378X0.02362*%
%ADD41R,0.02756X0.01181*%
%ADD42R,0.02756X0.03937*%
%ADD43R,0.01968X0.03740*%
%ADD50R,0.01693X0.12638*%
%ADD65R,0.12638X0.01693*%
%ADD82R,0.07795X0.09646*%
%ADD83R,0.09646X0.07795*%
%ADD87C,0.05906*%
%ADD88C,0.19685*%
%ADD89C,0.09449*%
%ADD90R,0.09449X0.09449*%
%ADD91C,0.07480*%
%ADD92R,0.09843X0.06693*%
%ADD93R,0.04724X0.09449*%
%ADD94O,0.08661X0.04331*%
%ADD95O,0.10236X0.05118*%
D18*
X100854Y43000D02*
D03*
X145146D02*
D03*
D19*
X289063Y79748D02*
D03*
Y86441D02*
D03*
X279000Y79654D02*
D03*
Y86347D02*
D03*
X269000Y79654D02*
D03*
Y86347D02*
D03*
X259000Y79654D02*
D03*
Y86347D02*
D03*
X186000Y95346D02*
D03*
Y88653D02*
D03*
X100000Y85654D02*
D03*
Y92347D02*
D03*
X107000Y92347D02*
D03*
Y85654D02*
D03*
X289000Y99347D02*
D03*
Y92654D02*
D03*
X279000Y99347D02*
D03*
Y92654D02*
D03*
X269000Y99347D02*
D03*
Y92654D02*
D03*
X259000Y99347D02*
D03*
Y92654D02*
D03*
X70000Y57653D02*
D03*
Y64346D02*
D03*
X58000Y57653D02*
D03*
Y64346D02*
D03*
X64000Y57653D02*
D03*
Y64346D02*
D03*
X194000Y55654D02*
D03*
Y62347D02*
D03*
X218000Y31346D02*
D03*
Y24654D02*
D03*
X236000Y31346D02*
D03*
Y24654D02*
D03*
X230000Y24654D02*
D03*
Y31346D02*
D03*
X224000Y24654D02*
D03*
Y31346D02*
D03*
X207000Y77846D02*
D03*
Y71153D02*
D03*
X292500Y24654D02*
D03*
Y31346D02*
D03*
X286500D02*
D03*
Y24654D02*
D03*
X304500D02*
D03*
Y31346D02*
D03*
X268500Y24654D02*
D03*
Y31346D02*
D03*
X262500Y24654D02*
D03*
Y31346D02*
D03*
X244000Y31346D02*
D03*
Y24654D02*
D03*
X280500D02*
D03*
Y31346D02*
D03*
X298500Y31346D02*
D03*
Y24654D02*
D03*
X274500D02*
D03*
Y31346D02*
D03*
X256500Y31346D02*
D03*
Y24654D02*
D03*
X250000Y31346D02*
D03*
Y24654D02*
D03*
X226000Y78347D02*
D03*
Y71653D02*
D03*
X232000Y78347D02*
D03*
Y71653D02*
D03*
X298500Y102154D02*
D03*
Y108846D02*
D03*
X310500Y102154D02*
D03*
Y108846D02*
D03*
D20*
X41441Y89000D02*
D03*
X46559D02*
D03*
D21*
X315700Y8161D02*
D03*
Y10721D02*
D03*
Y13280D02*
D03*
Y15839D02*
D03*
X78488Y64839D02*
D03*
Y62279D02*
D03*
Y59720D02*
D03*
Y57161D02*
D03*
D22*
X327452Y10721D02*
D03*
Y8161D02*
D03*
Y13280D02*
D03*
Y15839D02*
D03*
X90240Y64839D02*
D03*
Y62279D02*
D03*
Y57161D02*
D03*
Y59720D02*
D03*
D24*
X327991Y24137D02*
D03*
X315195D02*
D03*
D25*
X316324Y33168D02*
D03*
X326954D02*
D03*
X50685Y73000D02*
D03*
X61315D02*
D03*
D26*
X333653Y34000D02*
D03*
X340347D02*
D03*
X62653Y107000D02*
D03*
X69346D02*
D03*
X72654Y88000D02*
D03*
X79347D02*
D03*
X100654Y78000D02*
D03*
X107346D02*
D03*
X100654Y72000D02*
D03*
X107346D02*
D03*
X72654Y94000D02*
D03*
X79347D02*
D03*
X66347D02*
D03*
X59654D02*
D03*
X66347Y82000D02*
D03*
X59654D02*
D03*
X66347Y88000D02*
D03*
X59654D02*
D03*
X75653Y113000D02*
D03*
X82346D02*
D03*
X95346D02*
D03*
X88653D02*
D03*
X108346D02*
D03*
X101654D02*
D03*
X114654D02*
D03*
X121346D02*
D03*
X134346D02*
D03*
X127654D02*
D03*
X47346Y84000D02*
D03*
X40654D02*
D03*
X66347Y100000D02*
D03*
X59654D02*
D03*
D27*
X68362Y113000D02*
D03*
X63638D02*
D03*
D28*
X298594Y94055D02*
D03*
X310405D02*
D03*
D29*
X304500D02*
D03*
D30*
Y85000D02*
D03*
D31*
X60039Y35433D02*
D03*
X73819D02*
D03*
D32*
X164000Y96547D02*
D03*
Y77453D02*
D03*
X134000Y96547D02*
D03*
Y77453D02*
D03*
D33*
X237000Y62827D02*
D03*
X232000D02*
D03*
X227000D02*
D03*
X222000D02*
D03*
X217000D02*
D03*
X212000D02*
D03*
X207000D02*
D03*
X202000D02*
D03*
X237000Y41173D02*
D03*
X232000D02*
D03*
X227000D02*
D03*
X222000D02*
D03*
X217000D02*
D03*
X212000D02*
D03*
X207000D02*
D03*
X202000D02*
D03*
D34*
X281335Y71095D02*
D03*
Y66094D02*
D03*
Y61094D02*
D03*
Y56094D02*
D03*
Y51095D02*
D03*
Y46095D02*
D03*
Y41094D02*
D03*
X302791Y71095D02*
D03*
Y66094D02*
D03*
Y61094D02*
D03*
Y56094D02*
D03*
Y51095D02*
D03*
Y46095D02*
D03*
Y41094D02*
D03*
X251335Y71095D02*
D03*
Y66094D02*
D03*
Y61094D02*
D03*
Y56094D02*
D03*
Y51095D02*
D03*
Y46095D02*
D03*
Y41094D02*
D03*
X272791Y71095D02*
D03*
Y66094D02*
D03*
Y61094D02*
D03*
Y56094D02*
D03*
Y51095D02*
D03*
Y46095D02*
D03*
Y41094D02*
D03*
D35*
X86000Y32520D02*
D03*
D36*
Y47480D02*
D03*
D37*
X73240Y79839D02*
D03*
Y77280D02*
D03*
Y74721D02*
D03*
Y72161D02*
D03*
X90760Y79839D02*
D03*
Y77280D02*
D03*
Y74721D02*
D03*
Y72161D02*
D03*
D39*
X186161Y82452D02*
D03*
X188721D02*
D03*
X193839D02*
D03*
X191279D02*
D03*
D40*
X186161Y70700D02*
D03*
X188721D02*
D03*
X191279D02*
D03*
X193839D02*
D03*
D41*
X323740Y47244D02*
D03*
Y49213D02*
D03*
Y51181D02*
D03*
Y53150D02*
D03*
Y55118D02*
D03*
Y57087D02*
D03*
Y61024D02*
D03*
Y62992D02*
D03*
Y64961D02*
D03*
Y66929D02*
D03*
Y68898D02*
D03*
Y70866D02*
D03*
X328858Y67913D02*
D03*
Y65945D02*
D03*
Y63976D02*
D03*
Y62008D02*
D03*
Y60039D02*
D03*
Y58071D02*
D03*
Y56102D02*
D03*
Y54134D02*
D03*
Y52165D02*
D03*
Y50197D02*
D03*
D42*
Y71260D02*
D03*
Y46850D02*
D03*
D43*
X241000Y81142D02*
D03*
X237260Y88858D02*
D03*
X244740D02*
D03*
D50*
X321212Y12000D02*
D03*
X84000Y61000D02*
D03*
D65*
X190000Y76212D02*
D03*
D82*
X323000Y12000D02*
D03*
X85788Y61000D02*
D03*
D83*
X190000Y78000D02*
D03*
D87*
X154000Y5000D02*
D03*
X258000Y110500D02*
D03*
X83000Y101000D02*
D03*
X335000Y27000D02*
D03*
X164000Y5000D02*
D03*
X53000Y95000D02*
D03*
X210673Y30673D02*
D03*
X198000Y110500D02*
D03*
X208000D02*
D03*
X218000D02*
D03*
X277000D02*
D03*
X267500D02*
D03*
X248000D02*
D03*
X238000D02*
D03*
X228000D02*
D03*
D88*
X342520Y11811D02*
D03*
Y106299D02*
D03*
X62992Y11811D02*
D03*
X45000Y108000D02*
D03*
D89*
X19685Y92520D02*
D03*
D90*
Y72835D02*
D03*
D91*
X46654Y39114D02*
D03*
D92*
X41142Y59055D02*
D03*
X22244D02*
D03*
X41142Y19173D02*
D03*
X22244D02*
D03*
D93*
X24606Y39114D02*
D03*
D94*
X325354Y42047D02*
D03*
Y76063D02*
D03*
D95*
X346457Y42047D02*
D03*
Y76063D02*
D03*
M02*
