G04*
G04 #@! TF.GenerationSoftware,Altium Limited,Altium Designer,20.1.14 (287)*
G04*
G04 Layer_Color=32768*
%FSLAX25Y25*%
%MOIN*%
G70*
G04*
G04 #@! TF.SameCoordinates,5CC0788B-ACE4-4DC4-998A-98AA571F8A3E*
G04*
G04*
G04 #@! TF.FilePolarity,Positive*
G04*
G01*
G75*
%ADD11C,0.00394*%
%ADD13C,0.01000*%
%ADD100C,0.00100*%
%ADD101C,0.00200*%
D11*
X312747Y5110D02*
Y18988D01*
Y5110D02*
X329972D01*
Y18988D01*
X321359Y11445D02*
X321361Y12626D01*
X320769Y12035D02*
X321950D01*
X312747Y18988D02*
X329972D01*
X315687Y20298D02*
X327498D01*
X315687Y27975D02*
X327498D01*
Y20298D02*
Y27975D01*
X315687Y20298D02*
Y27975D01*
X321638Y31199D02*
Y35136D01*
X319670Y33168D02*
X323607D01*
X313371Y37400D02*
X330005D01*
X313371Y28935D02*
X330005D01*
X313371D02*
Y37400D01*
X330005Y28935D02*
Y37400D01*
X47634Y68768D02*
Y77232D01*
X64268Y68768D02*
Y77232D01*
X47634D02*
X64268D01*
X47634Y68768D02*
X64268D01*
X54031Y73000D02*
X57968D01*
X56000Y71031D02*
Y74968D01*
X80980Y33110D02*
Y46890D01*
X91020Y33110D02*
Y46890D01*
X80980Y33110D02*
X91020D01*
X80980Y46890D02*
X91020D01*
X75535Y67988D02*
X92760D01*
X83557Y61035D02*
X84738D01*
X84148Y60445D02*
X84150Y61626D01*
X92760Y54110D02*
Y67988D01*
X75535Y54110D02*
X92760D01*
X75535D02*
Y67988D01*
X183012Y67747D02*
Y84972D01*
X189965Y75769D02*
Y76950D01*
X189374Y76361D02*
X190555Y76359D01*
X183012Y84972D02*
X196890D01*
Y67747D02*
Y84972D01*
X183012Y67747D02*
X196890D01*
D13*
X96425Y18394D02*
Y67606D01*
Y18394D02*
X149575D01*
Y67606D01*
X96425D02*
X149575D01*
D100*
X287363Y79994D02*
X290763D01*
Y86194D01*
X287363D02*
X290763D01*
X287363Y79994D02*
Y86194D01*
X277300Y79900D02*
X280700D01*
Y86100D01*
X277300D02*
X280700D01*
X277300Y79900D02*
Y86100D01*
X267300Y79900D02*
X270700D01*
Y86100D01*
X267300D02*
X270700D01*
X267300Y79900D02*
Y86100D01*
X257300Y79900D02*
X260700D01*
Y86100D01*
X257300D02*
X260700D01*
X257300Y79900D02*
Y86100D01*
X184300Y88900D02*
Y95100D01*
X187700D01*
Y88900D02*
Y95100D01*
X184300Y88900D02*
X187700D01*
X40900Y87300D02*
X47100D01*
X40900D02*
Y90700D01*
X47100D01*
Y87300D02*
Y90700D01*
X98300Y85900D02*
X101700D01*
Y92100D01*
X98300D02*
X101700D01*
X98300Y85900D02*
Y92100D01*
X105300D02*
X108700D01*
X105300Y85900D02*
Y92100D01*
Y85900D02*
X108700D01*
Y92100D01*
X62900Y105300D02*
X69100D01*
X62900D02*
Y108700D01*
X69100D01*
Y105300D02*
Y108700D01*
X72900Y86300D02*
X79100D01*
X72900D02*
Y89700D01*
X79100D01*
Y86300D02*
Y89700D01*
X287300Y99100D02*
X290700D01*
X287300Y92900D02*
Y99100D01*
Y92900D02*
X290700D01*
Y99100D01*
X277300D02*
X280700D01*
X277300Y92900D02*
Y99100D01*
Y92900D02*
X280700D01*
Y99100D01*
X267300D02*
X270700D01*
X267300Y92900D02*
Y99100D01*
Y92900D02*
X270700D01*
Y99100D01*
X257300D02*
X260700D01*
X257300Y92900D02*
Y99100D01*
Y92900D02*
X260700D01*
Y99100D01*
X100900Y70300D02*
Y73700D01*
Y70300D02*
X107100D01*
Y73700D01*
X100900D02*
X107100D01*
X72900Y92300D02*
X79100D01*
X72900D02*
Y95700D01*
X79100D01*
Y92300D02*
Y95700D01*
X66100Y92300D02*
Y95700D01*
X59900D02*
X66100D01*
X59900Y92300D02*
Y95700D01*
Y92300D02*
X66100D01*
Y86300D02*
Y89700D01*
X59900D02*
X66100D01*
X59900Y86300D02*
Y89700D01*
Y86300D02*
X66100D01*
X195700Y55900D02*
Y62100D01*
X192300Y55900D02*
X195700D01*
X192300D02*
Y62100D01*
X195700D01*
X216300Y31100D02*
X219700D01*
X216300Y24900D02*
Y31100D01*
Y24900D02*
X219700D01*
Y31100D01*
X75900Y111300D02*
Y114700D01*
Y111300D02*
X82100D01*
Y114700D01*
X75900D02*
X82100D01*
X88900D02*
X95100D01*
Y111300D02*
Y114700D01*
X88900Y111300D02*
X95100D01*
X88900D02*
Y114700D01*
X101900D02*
X108100D01*
Y111300D02*
Y114700D01*
X101900Y111300D02*
X108100D01*
X101900D02*
Y114700D01*
X114900Y111300D02*
Y114700D01*
Y111300D02*
X121100D01*
Y114700D01*
X114900D02*
X121100D01*
X127900D02*
X134100D01*
Y111300D02*
Y114700D01*
X127900Y111300D02*
X134100D01*
X127900D02*
Y114700D01*
X205300Y77600D02*
X208700D01*
X205300Y71400D02*
Y77600D01*
Y71400D02*
X208700D01*
Y77600D01*
X290800Y24900D02*
X294200D01*
Y31100D01*
X290800D02*
X294200D01*
X290800Y24900D02*
Y31100D01*
X284800Y24900D02*
Y31100D01*
X288200D01*
Y24900D02*
Y31100D01*
X284800Y24900D02*
X288200D01*
X302800D02*
X306200D01*
Y31100D01*
X302800D02*
X306200D01*
X302800Y24900D02*
Y31100D01*
X266800Y24900D02*
X270200D01*
Y31100D01*
X266800D02*
X270200D01*
X266800Y24900D02*
Y31100D01*
X260800Y24900D02*
X264200D01*
Y31100D01*
X260800D02*
X264200D01*
X260800Y24900D02*
Y31100D01*
X242300D02*
X245700D01*
X242300Y24900D02*
Y31100D01*
Y24900D02*
X245700D01*
Y31100D01*
X282200Y24900D02*
Y31100D01*
X278800Y24900D02*
X282200D01*
X278800D02*
Y31100D01*
X282200D01*
X296800Y24900D02*
Y31100D01*
X300200D01*
Y24900D02*
Y31100D01*
X296800Y24900D02*
X300200D01*
X272800D02*
X276200D01*
Y31100D01*
X272800D02*
X276200D01*
X272800Y24900D02*
Y31100D01*
X254800D02*
X258200D01*
X254800Y24900D02*
Y31100D01*
Y24900D02*
X258200D01*
Y31100D01*
X248300D02*
X251700D01*
X248300Y24900D02*
Y31100D01*
Y24900D02*
X251700D01*
Y31100D01*
X40900Y85700D02*
X47100D01*
Y82300D02*
Y85700D01*
X40900Y82300D02*
X47100D01*
X40900D02*
Y85700D01*
X224300Y78100D02*
X227700D01*
X224300Y71900D02*
Y78100D01*
Y71900D02*
X227700D01*
Y78100D01*
X230300D02*
X233700D01*
X230300Y71900D02*
Y78100D01*
Y71900D02*
X233700D01*
Y78100D01*
X66100Y98300D02*
Y101700D01*
X59900D02*
X66100D01*
X59900Y98300D02*
Y101700D01*
Y98300D02*
X66100D01*
D101*
X321891Y32068D02*
X322890D01*
Y32818D01*
X322391D01*
X322890D01*
Y33568D01*
X320391D02*
X321391D01*
X320391Y32568D01*
Y32318D01*
X320641Y32068D01*
X321141D01*
X321391Y32318D01*
X45335Y89300D02*
Y88300D01*
X44835D01*
X44668Y88467D01*
Y88800D01*
X44835Y88967D01*
X45335D01*
X45001D02*
X44668Y89300D01*
X44335Y88467D02*
X44168Y88300D01*
X43835D01*
X43668Y88467D01*
Y88634D01*
X43835Y88800D01*
X44002D01*
X43835D01*
X43668Y88967D01*
Y89133D01*
X43835Y89300D01*
X44168D01*
X44335Y89133D01*
X42835Y89300D02*
Y88300D01*
X43335Y88800D01*
X42669D01*
X321107Y11885D02*
Y12885D01*
X320857Y13135D01*
X320357D01*
X320108Y12885D01*
Y11885D01*
X320357Y11635D01*
X320857D01*
X320607Y12135D02*
X321107Y11635D01*
X320857D02*
X321107Y11885D01*
X322607Y11635D02*
X321607D01*
X322607Y12635D01*
Y12885D01*
X322357Y13135D01*
X321857D01*
X321607Y12885D01*
X190115Y76107D02*
X189115D01*
X188865Y75857D01*
Y75358D01*
X189115Y75108D01*
X190115D01*
X190365Y75358D01*
Y75857D01*
X189865Y75607D02*
X190365Y76107D01*
Y75857D02*
X190115Y76107D01*
X189115Y76607D02*
X188865Y76857D01*
Y77357D01*
X189115Y77607D01*
X189365D01*
X189615Y77357D01*
Y77107D01*
Y77357D01*
X189865Y77607D01*
X190115D01*
X190365Y77357D01*
Y76857D01*
X190115Y76607D01*
X55998Y74099D02*
X54998D01*
Y73350D01*
X55498D01*
X54998D01*
Y72600D01*
X56497D02*
X56997D01*
X56747D01*
Y74099D01*
X56497Y73849D01*
X66252Y112251D02*
X66502Y112001D01*
X67002D01*
X67252Y112251D01*
Y113250D01*
X67002Y113500D01*
X66502D01*
X66252Y113250D01*
X64753Y113500D02*
X65753D01*
X64753Y112501D01*
Y112251D01*
X65003Y112001D01*
X65503D01*
X65753Y112251D01*
X84145Y60885D02*
Y61885D01*
X83895Y62135D01*
X83396D01*
X83146Y61885D01*
Y60885D01*
X83396Y60635D01*
X83895D01*
X83645Y61135D02*
X84145Y60635D01*
X83895D02*
X84145Y60885D01*
X84645Y60635D02*
X85145D01*
X84895D01*
Y62135D01*
X84645Y61885D01*
M02*
