G04*
G04 #@! TF.GenerationSoftware,Altium Limited,Altium Designer,20.1.14 (287)*
G04*
G04 Layer_Color=16711935*
%FSLAX25Y25*%
%MOIN*%
G70*
G04*
G04 #@! TF.SameCoordinates,CBDBEFF8-9AEE-4DE1-B039-B0D643503B7D*
G04*
G04*
G04 #@! TF.FilePolarity,Positive*
G04*
G01*
G75*
%ADD11C,0.00394*%
%ADD99C,0.00100*%
%ADD101C,0.00098*%
D11*
X315536Y36207D02*
X327642D01*
X315536Y30096D02*
X327642D01*
X315536D02*
Y36207D01*
X327642Y30096D02*
Y36207D01*
X49996Y69961D02*
Y76071D01*
X62102Y69961D02*
Y76071D01*
X49996D02*
X62102D01*
X49996Y69961D02*
X62102D01*
D99*
X333800Y32400D02*
X340200D01*
X333800D02*
Y35600D01*
X340200D01*
Y32400D02*
Y35600D01*
X62800Y111400D02*
X69200D01*
X62800D02*
Y114600D01*
X69200D01*
Y111400D02*
Y114600D01*
X100800Y76400D02*
Y79600D01*
Y76400D02*
X107200D01*
Y79600D01*
X100800D02*
X107200D01*
X66200Y80400D02*
Y83600D01*
X59800D02*
X66200D01*
X59800Y80400D02*
Y83600D01*
Y80400D02*
X66200D01*
X68400Y57800D02*
X71600D01*
Y64200D01*
X68400D02*
X71600D01*
X68400Y57800D02*
Y64200D01*
X56400Y57800D02*
X59600D01*
Y64200D01*
X56400D02*
X59600D01*
X56400Y57800D02*
Y64200D01*
X62400Y57800D02*
X65600D01*
Y64200D01*
X62400D02*
X65600D01*
X62400Y57800D02*
Y64200D01*
X234400Y31200D02*
X237600D01*
X234400Y24800D02*
Y31200D01*
Y24800D02*
X237600D01*
Y31200D01*
X228400Y24800D02*
X231600D01*
Y31200D01*
X228400D02*
X231600D01*
X228400Y24800D02*
Y31200D01*
X222400Y24800D02*
X225600D01*
Y31200D01*
X222400D02*
X225600D01*
X222400Y24800D02*
Y31200D01*
X296900Y102300D02*
X300100D01*
Y108700D01*
X296900D02*
X300100D01*
X296900Y102300D02*
Y108700D01*
X308900Y102300D02*
X312100D01*
Y108700D01*
X308900D02*
X312100D01*
X308900Y102300D02*
Y108700D01*
D101*
X318161Y16528D02*
G03*
X318161Y16528I-1378J0D01*
G01*
X80949Y65528D02*
G03*
X80949Y65528I-1378J0D01*
G01*
X186850Y71783D02*
G03*
X186850Y71783I-1378J0D01*
G01*
X314322Y5110D02*
X328397D01*
X314322Y18988D02*
X328397D01*
X314322Y5110D02*
Y18988D01*
X328397Y5110D02*
Y18988D01*
X91185Y54110D02*
Y67988D01*
X77110Y54110D02*
Y67988D01*
X91185D01*
X77110Y54110D02*
X91185D01*
X183012Y83397D02*
X196890D01*
X183012Y69322D02*
X196890D01*
X183012D02*
Y83397D01*
X196890Y69322D02*
Y83397D01*
M02*
