M48
;Layer_Color=9474304
;FILE_FORMAT=2:5
INCH,LZ
;TYPE=PLATED
T1F00S00C0.01575
T2F00S00C0.01772
T4F00S00C0.02756
T6F00S00C0.02799
T7F00S00C0.03937
T9F00S00C0.05906
T10F00S00C0.06299
T11F00S00C0.13386
;TYPE=NON_PLATED
T12F00S00C0.06693
%
T01
X0008378Y0004
X0016252
X0024126
X0032
X0004437Y0020185
Y0028059
X0039874Y0004
X0047748
X007874Y0006762
Y0014636
X0086614
Y0006762
X0094488
Y0014636
X0102362
Y0006762
X0110236
Y0014636
X011811
X0125984
Y0006762
X011811
X0133858
Y0014636
X00895Y00275
X0083
X00775Y00355
X00705
X0213895Y0020634
X0218Y00205
X0227Y00245
X0233
X025327Y0024535
X02805Y00345
X03035Y00205
X0314
X03185Y00255
X03155Y0004
X032Y00025
X0344Y0034
X034252Y0051181
Y0059055
X0350394
Y0051181
Y0066929
X034252
X03325Y0061
X0319Y0056
X0316929Y0086614
X0324803
X0332677
Y0094488
X0324803
Y0102362
X0316929
Y0094488
X0240755Y0085196
X02465Y0061
X0237Y0057
Y00535
X02335Y0055
X0222Y00675
X0207Y00815
X0186Y0099
X0120079Y0104331
X0112205
X0104331
X0096457
X00985Y0113
X01115
X01245
X00855
X0083Y0091
X0096Y0086
Y00755
X0085Y0072
X00685Y00765
X007Y0054
X0064
X0058
Y0107
X00725Y0099
X01115Y0082
X0029528Y0108268
X0021654
X001378
X0005906
X0004437Y0075303
Y0067429
Y0059555
Y0051681
T02
X02725Y0023
T04
X0267Y00635
X0297Y0063
X03045Y01
Y0108846
X0133858Y0106299
T06
X0164Y01065
T07
X0154Y0005
X0164
X0210673Y0030673
X0335Y0027
X0277Y01105
X02675
X0258
X0248
X0238
X0228
X0218
X0208
X0198
X0083Y0101
X0053Y0095
T09
X0046654Y0039114
T10
X0019685Y0072835
Y009252
T11
X0062992Y0011811
X034252
Y0106299
X0045Y0108
T12
X001122Y0039114
M30
