G04*
G04 #@! TF.GenerationSoftware,Altium Limited,Altium Designer,20.1.14 (287)*
G04*
G04 Layer_Color=255*
%FSLAX25Y25*%
%MOIN*%
G70*
G04*
G04 #@! TF.SameCoordinates,5CC0788B-ACE4-4DC4-998A-98AA571F8A3E*
G04*
G04*
G04 #@! TF.FilePolarity,Positive*
G04*
G01*
G75*
%ADD88C,0.05906*%
%ADD89C,0.19685*%
%ADD90C,0.09449*%
%ADD91R,0.09449X0.09449*%
%ADD92C,0.07480*%
%ADD93R,0.09843X0.06693*%
%ADD94R,0.04724X0.09449*%
%ADD95O,0.08661X0.04331*%
%ADD96O,0.10236X0.05118*%
D88*
X154000Y5000D02*
D03*
X258000Y110500D02*
D03*
X83000Y101000D02*
D03*
X335000Y27000D02*
D03*
X164000Y5000D02*
D03*
X53000Y95000D02*
D03*
X210673Y30673D02*
D03*
X198000Y110500D02*
D03*
X208000D02*
D03*
X218000D02*
D03*
X277000D02*
D03*
X267500D02*
D03*
X248000D02*
D03*
X238000D02*
D03*
X228000D02*
D03*
D89*
X342520Y11811D02*
D03*
Y106299D02*
D03*
X62992Y11811D02*
D03*
X45000Y108000D02*
D03*
D90*
X19685Y92520D02*
D03*
D91*
Y72835D02*
D03*
D92*
X46654Y39114D02*
D03*
D93*
X41142Y59055D02*
D03*
X22244D02*
D03*
X41142Y19173D02*
D03*
X22244D02*
D03*
D94*
X24606Y39114D02*
D03*
D95*
X325354Y42047D02*
D03*
Y76063D02*
D03*
D96*
X346457Y42047D02*
D03*
Y76063D02*
D03*
M02*
