G04*
G04 #@! TF.GenerationSoftware,Altium Limited,Altium Designer,20.1.14 (287)*
G04*
G04 Layer_Color=32768*
%FSLAX25Y25*%
%MOIN*%
G70*
G04*
G04 #@! TF.SameCoordinates,CBDBEFF8-9AEE-4DE1-B039-B0D643503B7D*
G04*
G04*
G04 #@! TF.FilePolarity,Positive*
G04*
G01*
G75*
%ADD11C,0.00394*%
%ADD102C,0.00197*%
D11*
X289063Y82307D02*
Y83882D01*
X288276Y83095D02*
X289850D01*
X286307Y76795D02*
Y89394D01*
X291819D01*
Y76795D02*
Y89394D01*
X286307Y76795D02*
X291819D01*
X279000Y82213D02*
Y83787D01*
X278213Y83000D02*
X279787D01*
X276244Y76701D02*
Y89299D01*
X281756D01*
Y76701D02*
Y89299D01*
X276244Y76701D02*
X281756D01*
X269000Y82213D02*
Y83787D01*
X268213Y83000D02*
X269787D01*
X266244Y76701D02*
Y89299D01*
X271756D01*
Y76701D02*
Y89299D01*
X266244Y76701D02*
X271756D01*
X259000Y82213D02*
Y83787D01*
X258213Y83000D02*
X259787D01*
X256244Y76701D02*
Y89299D01*
X261756D01*
Y76701D02*
Y89299D01*
X256244Y76701D02*
X261756D01*
X183244Y85701D02*
X188756D01*
Y98299D01*
X183244D02*
X188756D01*
X183244Y85701D02*
Y98299D01*
X185213Y92000D02*
X186787D01*
X186000Y91213D02*
Y92787D01*
X44000Y87228D02*
Y90772D01*
X42228Y89000D02*
X45772D01*
X321593Y22168D02*
Y26105D01*
X319624Y24137D02*
X323561D01*
X343299Y31244D02*
Y36756D01*
X330701D02*
X343299D01*
X330701Y31244D02*
Y36756D01*
Y31244D02*
X343299D01*
X337000Y33213D02*
Y34787D01*
X336213Y34000D02*
X337787D01*
X64130Y113000D02*
X67870D01*
X66000Y111130D02*
Y114870D01*
X100000Y88213D02*
Y89787D01*
X99213Y89000D02*
X100787D01*
X97244Y82701D02*
Y95299D01*
X102756D01*
Y82701D02*
Y95299D01*
X97244Y82701D02*
X102756D01*
X107000Y88213D02*
Y89787D01*
X106213Y89000D02*
X107787D01*
X109756Y82701D02*
Y95299D01*
X104244Y82701D02*
X109756D01*
X104244D02*
Y95299D01*
X109756D01*
X72299Y104244D02*
Y109756D01*
X59701D02*
X72299D01*
X59701Y104244D02*
Y109756D01*
Y104244D02*
X72299D01*
X66000Y106213D02*
Y107787D01*
X65213Y107000D02*
X66787D01*
X82299Y85244D02*
Y90756D01*
X69701D02*
X82299D01*
X69701Y85244D02*
Y90756D01*
Y85244D02*
X82299D01*
X76000Y87213D02*
Y88787D01*
X75213Y88000D02*
X76787D01*
X64961Y35433D02*
X68898D01*
X66929Y33465D02*
Y37402D01*
X162031Y87000D02*
X165969D01*
X164000Y85031D02*
Y88968D01*
X132032Y87000D02*
X135968D01*
X134000Y85031D02*
Y88968D01*
X219500Y50032D02*
Y53969D01*
X217531Y52000D02*
X221468D01*
X289000Y95213D02*
Y96787D01*
X288213Y96000D02*
X289787D01*
X291756Y89701D02*
Y102299D01*
X286244Y89701D02*
X291756D01*
X286244D02*
Y102299D01*
X291756D01*
X279000Y95213D02*
Y96787D01*
X278213Y96000D02*
X279787D01*
X281756Y89701D02*
Y102299D01*
X276244Y89701D02*
X281756D01*
X276244D02*
Y102299D01*
X281756D01*
X290094Y56094D02*
X294032D01*
X292063Y54126D02*
Y58063D01*
X269000Y95213D02*
Y96787D01*
X268213Y96000D02*
X269787D01*
X271756Y89701D02*
Y102299D01*
X266244Y89701D02*
X271756D01*
X266244D02*
Y102299D01*
X271756D01*
X259000Y95213D02*
Y96787D01*
X258213Y96000D02*
X259787D01*
X261756Y89701D02*
Y102299D01*
X256244Y89701D02*
X261756D01*
X256244D02*
Y102299D01*
X261756D01*
X260094Y56094D02*
X264032D01*
X262063Y54126D02*
Y58063D01*
X103213Y78000D02*
X104787D01*
X104000Y77213D02*
Y78787D01*
X97701Y80756D02*
X110299D01*
Y75244D02*
Y80756D01*
X97701Y75244D02*
X110299D01*
X97701D02*
Y80756D01*
X84031Y40000D02*
X87968D01*
X86000Y38032D02*
Y41969D01*
X103213Y72000D02*
X104787D01*
X104000Y71213D02*
Y72787D01*
X97701Y74756D02*
X110299D01*
Y69244D02*
Y74756D01*
X97701Y69244D02*
X110299D01*
X97701D02*
Y74756D01*
X82299Y91244D02*
Y96756D01*
X69701D02*
X82299D01*
X69701Y91244D02*
Y96756D01*
Y91244D02*
X82299D01*
X76000Y93213D02*
Y94787D01*
X75213Y94000D02*
X76787D01*
X62213D02*
X63787D01*
X63000Y93213D02*
Y94787D01*
X56701Y91244D02*
X69299D01*
X56701D02*
Y96756D01*
X69299D01*
Y91244D02*
Y96756D01*
X62213Y82000D02*
X63787D01*
X63000Y81213D02*
Y82787D01*
X56701Y79244D02*
X69299D01*
X56701D02*
Y84756D01*
X69299D01*
Y79244D02*
Y84756D01*
X62213Y88000D02*
X63787D01*
X63000Y87213D02*
Y88787D01*
X56701Y85244D02*
X69299D01*
X56701D02*
Y90756D01*
X69299D01*
Y85244D02*
Y90756D01*
X70000Y60213D02*
Y61787D01*
X69213Y61000D02*
X70787D01*
X67244Y54701D02*
Y67299D01*
X72756D01*
Y54701D02*
Y67299D01*
X67244Y54701D02*
X72756D01*
X58000Y60213D02*
Y61787D01*
X57213Y61000D02*
X58787D01*
X55244Y54701D02*
Y67299D01*
X60756D01*
Y54701D02*
Y67299D01*
X55244Y54701D02*
X60756D01*
X64000Y60213D02*
Y61787D01*
X63213Y61000D02*
X64787D01*
X61244Y54701D02*
Y67299D01*
X66756D01*
Y54701D02*
Y67299D01*
X61244Y54701D02*
X66756D01*
X82000Y74032D02*
Y77969D01*
X80032Y76000D02*
X83969D01*
X191244Y65299D02*
X196756D01*
X191244Y52701D02*
Y65299D01*
Y52701D02*
X196756D01*
Y65299D01*
X193213Y59000D02*
X194787D01*
X194000Y58213D02*
Y59787D01*
X218000Y27213D02*
Y28787D01*
X217213Y28000D02*
X218787D01*
X220756Y21701D02*
Y34299D01*
X215244Y21701D02*
X220756D01*
X215244D02*
Y34299D01*
X220756D01*
X78213Y113000D02*
X79787D01*
X79000Y112213D02*
Y113787D01*
X72701Y115756D02*
X85299D01*
Y110244D02*
Y115756D01*
X72701Y110244D02*
X85299D01*
X72701D02*
Y115756D01*
X85701Y110244D02*
Y115756D01*
Y110244D02*
X98299D01*
Y115756D01*
X85701D02*
X98299D01*
X92000Y112213D02*
Y113787D01*
X91213Y113000D02*
X92787D01*
X98701Y110244D02*
Y115756D01*
Y110244D02*
X111299D01*
Y115756D01*
X98701D02*
X111299D01*
X105000Y112213D02*
Y113787D01*
X104213Y113000D02*
X105787D01*
X117213D02*
X118787D01*
X118000Y112213D02*
Y113787D01*
X111701Y115756D02*
X124299D01*
Y110244D02*
Y115756D01*
X111701Y110244D02*
X124299D01*
X111701D02*
Y115756D01*
X124701Y110244D02*
Y115756D01*
Y110244D02*
X137299D01*
Y115756D01*
X124701D02*
X137299D01*
X131000Y112213D02*
Y113787D01*
X130213Y113000D02*
X131787D01*
X236000Y27213D02*
Y28787D01*
X235213Y28000D02*
X236787D01*
X238756Y21701D02*
Y34299D01*
X233244Y21701D02*
X238756D01*
X233244D02*
Y34299D01*
X238756D01*
X230000Y27213D02*
Y28787D01*
X229213Y28000D02*
X230787D01*
X227244Y21701D02*
Y34299D01*
X232756D01*
Y21701D02*
Y34299D01*
X227244Y21701D02*
X232756D01*
X224000Y27213D02*
Y28787D01*
X223213Y28000D02*
X224787D01*
X221244Y21701D02*
Y34299D01*
X226756D01*
Y21701D02*
Y34299D01*
X221244Y21701D02*
X226756D01*
X207000Y73713D02*
Y75287D01*
X206213Y74500D02*
X207787D01*
X209756Y68201D02*
Y80799D01*
X204244Y68201D02*
X209756D01*
X204244D02*
Y80799D01*
X209756D01*
X292500Y27213D02*
Y28787D01*
X291713Y28000D02*
X293287D01*
X289744Y21701D02*
Y34299D01*
X295256D01*
Y21701D02*
Y34299D01*
X289744Y21701D02*
X295256D01*
X283744D02*
X289256D01*
Y34299D01*
X283744D02*
X289256D01*
X283744Y21701D02*
Y34299D01*
X285713Y28000D02*
X287287D01*
X286500Y27213D02*
Y28787D01*
X304500Y27213D02*
Y28787D01*
X303713Y28000D02*
X305287D01*
X301744Y21701D02*
Y34299D01*
X307256D01*
Y21701D02*
Y34299D01*
X301744Y21701D02*
X307256D01*
X268500Y27213D02*
Y28787D01*
X267713Y28000D02*
X269287D01*
X265744Y21701D02*
Y34299D01*
X271256D01*
Y21701D02*
Y34299D01*
X265744Y21701D02*
X271256D01*
X262500Y27213D02*
Y28787D01*
X261713Y28000D02*
X263287D01*
X259744Y21701D02*
Y34299D01*
X265256D01*
Y21701D02*
Y34299D01*
X259744Y21701D02*
X265256D01*
X244000Y27213D02*
Y28787D01*
X243213Y28000D02*
X244787D01*
X246756Y21701D02*
Y34299D01*
X241244Y21701D02*
X246756D01*
X241244D02*
Y34299D01*
X246756D01*
X277744D02*
X283256D01*
X277744Y21701D02*
Y34299D01*
Y21701D02*
X283256D01*
Y34299D01*
X279713Y28000D02*
X281287D01*
X280500Y27213D02*
Y28787D01*
X295744Y21701D02*
X301256D01*
Y34299D01*
X295744D02*
X301256D01*
X295744Y21701D02*
Y34299D01*
X297713Y28000D02*
X299287D01*
X298500Y27213D02*
Y28787D01*
X274500Y27213D02*
Y28787D01*
X273713Y28000D02*
X275287D01*
X271744Y21701D02*
Y34299D01*
X277256D01*
Y21701D02*
Y34299D01*
X271744Y21701D02*
X277256D01*
X256500Y27213D02*
Y28787D01*
X255713Y28000D02*
X257287D01*
X259256Y21701D02*
Y34299D01*
X253744Y21701D02*
X259256D01*
X253744D02*
Y34299D01*
X259256D01*
X250000Y27213D02*
Y28787D01*
X249213Y28000D02*
X250787D01*
X252756Y21701D02*
Y34299D01*
X247244Y21701D02*
X252756D01*
X247244D02*
Y34299D01*
X252756D01*
X37701Y81244D02*
Y86756D01*
Y81244D02*
X50299D01*
Y86756D01*
X37701D02*
X50299D01*
X44000Y83213D02*
Y84787D01*
X43213Y84000D02*
X44787D01*
X226000Y74213D02*
Y75787D01*
X225213Y75000D02*
X226787D01*
X228756Y68701D02*
Y81299D01*
X223244Y68701D02*
X228756D01*
X223244D02*
Y81299D01*
X228756D01*
X232000Y74213D02*
Y75787D01*
X231213Y75000D02*
X232787D01*
X234756Y68701D02*
Y81299D01*
X229244Y68701D02*
X234756D01*
X229244D02*
Y81299D01*
X234756D01*
X62213Y100000D02*
X63787D01*
X63000Y99213D02*
Y100787D01*
X56701Y97244D02*
X69299D01*
X56701D02*
Y102756D01*
X69299D01*
Y97244D02*
Y102756D01*
X239032Y85000D02*
X242969D01*
X241000Y83031D02*
Y86968D01*
X298500Y104713D02*
Y106287D01*
X297713Y105500D02*
X299287D01*
X295744Y99201D02*
Y111799D01*
X301256D01*
Y99201D02*
Y111799D01*
X295744Y99201D02*
X301256D01*
X310500Y104713D02*
Y106287D01*
X309713Y105500D02*
X311287D01*
X307744Y99201D02*
Y111799D01*
X313256D01*
Y99201D02*
Y111799D01*
X307744Y99201D02*
X313256D01*
D102*
X39866Y91165D02*
X48134D01*
X39866Y86835D02*
X48134D01*
X39866D02*
Y91165D01*
X48134Y86835D02*
Y91165D01*
X313128Y19806D02*
X330058D01*
X313128Y28468D02*
X330058D01*
Y19806D02*
Y28468D01*
X313128Y19806D02*
Y28468D01*
X70331Y110638D02*
Y115362D01*
X61669Y110638D02*
Y115362D01*
Y110638D02*
X70331D01*
X61669Y115362D02*
X70331D01*
X57087Y30906D02*
Y39961D01*
X76772Y30906D02*
Y39961D01*
X57087D02*
X76772D01*
X57087Y30906D02*
X76772D01*
X181323Y66921D02*
Y107079D01*
X146677Y66921D02*
Y107079D01*
X181323D01*
X146677Y66921D02*
X181323D01*
X151323D02*
Y107079D01*
X116677Y66921D02*
Y107079D01*
X151323D01*
X116677Y66921D02*
X151323D01*
X198831Y66665D02*
X240169D01*
X198831Y37335D02*
X240169D01*
Y66665D01*
X198831Y37335D02*
Y66665D01*
X277496Y37787D02*
Y74402D01*
X306630Y37787D02*
Y74402D01*
X277496D02*
X306630D01*
X277496Y37787D02*
X306630D01*
X247496D02*
Y74402D01*
X276630Y37787D02*
Y74402D01*
X247496D02*
X276630D01*
X247496Y37787D02*
X276630D01*
X69598Y83087D02*
X94402D01*
X69598Y68913D02*
X94402D01*
X69598D02*
Y83087D01*
X94402Y68913D02*
Y83087D01*
X320039Y38504D02*
Y79606D01*
X355118D01*
Y38504D02*
Y79606D01*
X320039Y38504D02*
X355118D01*
X234110Y76732D02*
Y93268D01*
X247890Y76732D02*
Y93268D01*
X234110Y76732D02*
X247890D01*
X234110Y93268D02*
X247890D01*
M02*
